# xmcd
#
# Track frame offsets: 
#        150
#        24542
#        57113
#        73603
#        93596
#        112524
#        139743
#        172125
#        206870
#        243480
#        259183
#        288711
#
# Disc length: 4329 seconds
#
# Revision: 0
# Processed by: cddbd v1.5.2PL0 Copyright (c) Steve Scherf et al.
# Submitted via: ExactAudioCopy v1.0b3
#
DISCID=b410e70c
DTITLE=Various Artist - The Best In Techno Vol. 1 - CD 3
DYEAR=1900
DGENRE=
TTITLE0=Benny Benassi - Able To Love (Sfaction Mix)
TTITLE1=Club Baby - Babycore Original Club Mix)
TTITLE2=8Beat - Datacity (Radio Mix)
TTITLE3=Jake Fairley - Motor
TTITLE4=Der Dritte Raum - Tanzstanze
TTITLE5=LFO - LFO (Steinbach and Diggler Remix)
TTITLE6=Tom Wilson - Techno Cat 3002 (Ule Poeppelbaum Reconstruction)
TTITLE7=Santos - Sabot (Santos Original)
TTITLE8=Mario Piu - Once Upon A Time In The West (DJ Arabesque Mix)
TTITLE9=Steve Murano - Passion (Original Club Mix)
TTITLE10=The Shrink - Bit Staboi (Jean Moiree Remix)
TTITLE11=Floorfilla - Anthem #6 (Cassez La Boite) (Warp Brothers Rmx)
EXTD=
EXTT0=
EXTT1=
EXTT2=
EXTT3=
EXTT4=
EXTT5=
EXTT6=
EXTT7=
EXTT8=
EXTT9=
EXTT10=
EXTT11=
PLAYORDER=
